<?xml version="1.0" standalone="no"?>
<!DOCTYPE svg PUBLIC "-//W3C//DTD SVG 20010904//EN"
 "http://www.w3.org/TR/2001/REC-SVG-20010904/DTD/svg10.dtd">
<svg version="1.0" xmlns="http://www.w3.org/2000/svg"
 width="1024.000000pt" height="1024.000000pt" viewBox="0 0 1024.000000 1024.000000"
 preserveAspectRatio="xMidYMid meet">
<metadata>
Created by potrace 1.14, written by Peter Selinger 2001-2017
</metadata>
<g transform="translate(0.000000,1024.000000) scale(0.100000,-0.100000)"
fill="#000000" stroke="none">
<path d="M2935 10234 c-16 -2 -73 -9 -125 -15 -52 -5 -160 -23 -240 -39 -878
-175 -1645 -713 -2111 -1481 -223 -368 -358 -744 -432 -1209 l-22 -135 0
-2230 c0 -2461 -4 -2277 61 -2589 182 -862 718 -1618 1475 -2077 368 -223 744
-358 1209 -432 l135 -22 2230 0 c2461 0 2277 -4 2589 61 862 182 1618 718
2077 1475 222 366 355 737 432 1204 21 130 21 136 25 2300 3 1917 1 2188 -13
2325 -100 989 -667 1886 -1520 2405 -370 225 -745 361 -1210 438 l-130 21
-2200 2 c-1210 1 -2213 0 -2230 -2z m743 -3435 c359 -39 712 -186 955 -398 75
-65 177 -178 177 -195 -1 -6 -79 -92 -174 -190 l-173 -179 -84 73 c-217 188
-470 312 -723 356 -112 20 -331 14 -451 -11 -385 -81 -701 -316 -873 -652
-102 -199 -144 -378 -144 -613 1 -222 43 -396 144 -593 186 -362 522 -612 934
-694 132 -26 357 -23 494 6 405 86 704 373 727 698 l6 83 -512 0 -511 0 0 270
0 270 794 0 794 0 8 -77 c12 -118 9 -388 -5 -478 -67 -425 -285 -786 -622
-1028 -107 -76 -296 -173 -413 -211 -311 -102 -700 -109 -1040 -20 -325 86
-611 256 -857 511 -286 297 -446 645 -489 1062 -66 660 192 1266 705 1652 367
277 862 410 1333 358z m3925 -51 c316 -87 589 -306 732 -588 153 -301 160
-667 20 -958 -63 -132 -132 -226 -238 -329 -100 -97 -176 -152 -277 -203 -36
-18 -67 -34 -69 -36 -2 -2 93 -169 210 -371 419 -724 609 -1054 609 -1058 0
-3 -147 -5 -327 -5 l-328 0 -380 675 -380 675 -412 0 -413 0 0 -675 0 -675
-268 0 -269 0 -6 428 c-4 235 -7 1040 -7 1790 l0 1363 853 -3 852 -3 98 -27z"/>
<path d="M6350 5665 l0 -585 558 0 c433 0 568 3 607 14 164 44 294 173 354
354 30 89 37 227 17 322 -38 178 -153 327 -316 407 -145 72 -151 73 -717 73
l-503 0 0 -585z"/>
</g>
</svg>
