<svg width="16" height="16" viewBox="0 0 16 16" fill="none" xmlns="http://www.w3.org/2000/svg">
  <g clip-path="url(#clip0_915_18)">
    <path
      d="M4.58077 0.0037411C4.55576 0.00686872 4.46664 0.0178154 4.38535 0.0271982C4.30405 0.0350172 4.13521 0.0631658 4.01014 0.0881867C2.63749 0.361853 1.43838 1.20318 0.709849 2.40419C0.361215 2.97967 0.150159 3.56766 0.0344694 4.29483L7.51032e-05 4.50594V7.99323C7.51032e-05 11.8418 -0.00617841 11.554 0.0954411 12.0419C0.379976 13.3899 1.21795 14.5722 2.40142 15.29C2.97675 15.6387 3.56458 15.8498 4.29155 15.9655L4.5026 15.9999H7.98893C11.8364 15.9999 11.5487 16.0062 12.0365 15.9045C13.3842 15.6199 14.5661 14.7817 15.2837 13.5979C15.6307 13.0256 15.8387 12.4454 15.959 11.7151C15.9919 11.5118 15.9919 11.5024 15.9981 8.11834C16.0028 5.12052 15.9997 4.69673 15.9778 4.48248C15.8215 2.93588 14.935 1.53314 13.6015 0.721529C13.023 0.369672 12.4367 0.156994 11.7098 0.0365811L11.5065 0.0037411L8.0671 0.000613489C6.17542 -0.000950318 4.60735 0.000613489 4.58077 0.0037411ZM5.74236 5.37542C6.30361 5.43641 6.85549 5.66629 7.23539 5.99781C7.35264 6.09946 7.5121 6.27617 7.5121 6.30276C7.51054 6.31214 7.3886 6.44663 7.24008 6.59988L6.96961 6.8798L6.83829 6.76564C6.49904 6.47165 6.1035 6.27774 5.70797 6.20893C5.53287 6.17765 5.19049 6.18703 5.00288 6.22613C4.40098 6.3528 3.90696 6.72029 3.63805 7.24573C3.47859 7.55693 3.41293 7.83685 3.41293 8.20435C3.41449 8.55151 3.48015 8.82361 3.63805 9.13168C3.92884 9.69778 4.45414 10.0887 5.09825 10.217C5.30462 10.2576 5.65638 10.2529 5.87056 10.2076C6.50373 10.0731 6.97118 9.62428 7.00713 9.11604L7.01651 8.98625H5.41718V8.14179H7.89982L7.91233 8.26221C7.93109 8.44674 7.9264 8.86896 7.90451 9.00971C7.79977 9.67432 7.45895 10.2389 6.93209 10.6173C6.76481 10.7361 6.46933 10.8878 6.28642 10.9473C5.80021 11.1068 5.19205 11.1177 4.6605 10.9785C4.15241 10.8441 3.70528 10.5782 3.32069 10.1794C2.87356 9.71498 2.62342 9.17078 2.5562 8.51867C2.45301 7.48656 2.85637 6.53889 3.65838 5.93526C4.23214 5.50209 5.00601 5.2941 5.74236 5.37542ZM11.8786 5.45517C12.3726 5.59122 12.7994 5.9337 13.023 6.37469C13.2622 6.8454 13.2732 7.41775 13.0543 7.87282C12.9558 8.07924 12.8479 8.22624 12.6822 8.38731C12.5259 8.539 12.407 8.62501 12.2491 8.70476C12.1929 8.73291 12.1444 8.75793 12.1413 8.76106C12.1381 8.76419 12.2867 9.02534 12.4696 9.34123C13.1246 10.4734 13.4217 10.9895 13.4217 10.9957C13.4217 11.0004 13.1919 11.0036 12.9104 11.0036H12.3977L11.2095 8.89242H9.91971V11.0036H9.08017L9.07079 10.3343C9.06454 9.96676 9.05985 8.70789 9.05985 7.53504V5.40357L11.7254 5.41295L11.8786 5.45517Z"
      fill="black" />
    <path
      d="M9.92188 8.07812H10.7896C11.463 8.07812 11.6729 8.0734 11.7336 8.05606C11.9886 7.98672 12.1908 7.78344 12.2841 7.49821C12.3307 7.35796 12.3416 7.14049 12.3105 6.99078C12.2514 6.71028 12.0726 6.47548 11.8191 6.34941C11.5936 6.23595 11.5843 6.23437 10.7041 6.23437H9.92188V8.07812Z"
      fill="black" />
  </g>
  <defs>
    <clipPath id="clip0_915_18">
      <rect width="16" height="16" fill="white" />
    </clipPath>
  </defs>
</svg>
