<svg width="128" height="128" viewBox="0 0 128 128" fill="none" xmlns="http://www.w3.org/2000/svg">
  <rect width="128" height="128" rx="32" fill="#16A34A"/>
  <path d="M61.2 82.904C60.56 83.4587 59.664 84.0133 58.512 84.568C57.36 85.1227 56.0587 85.6133 54.608 86.04C53.2 86.4667 51.7493 86.808 50.256 87.064C48.7627 87.3627 47.3547 87.512 46.032 87.512C42.2773 87.512 38.9067 86.936 35.92 85.784C32.9333 84.632 30.3733 83.032 28.24 80.984C26.1067 78.936 24.464 76.5467 23.312 73.816C22.2027 71.0427 21.648 68.0347 21.648 64.792C21.648 60.824 22.288 57.304 23.568 54.232C24.848 51.16 26.576 48.5787 28.752 46.488C30.9707 44.3547 33.5093 42.7547 36.368 41.688C39.2693 40.5787 42.2987 40.024 45.456 40.024C48.2293 40.024 50.7893 40.344 53.136 40.984C55.5253 41.624 57.5733 42.456 59.28 43.48L57.04 49.752C56.1867 49.2827 55.12 48.8347 53.84 48.408C52.6027 47.9387 51.3227 47.576 50 47.32C48.6773 47.064 47.4613 46.936 46.352 46.936C43.6213 46.936 41.168 47.3413 38.992 48.152C36.8587 48.92 35.024 50.0507 33.488 51.544C31.952 53.0373 30.7573 54.8507 29.904 56.984C29.0933 59.1173 28.688 61.528 28.688 64.216C28.688 66.648 29.1147 68.888 29.968 70.936C30.8213 72.9413 32.016 74.6907 33.552 76.184C35.088 77.6347 36.9227 78.7653 39.056 79.576C41.1893 80.344 43.5573 80.728 46.16 80.728C47.6533 80.728 49.1253 80.5787 50.576 80.28C52.0267 79.9813 53.264 79.5547 54.288 79V70.552H45.328V63.96H61.2V82.904ZM85.514 40.536C87.946 40.536 90.186 40.8773 92.234 41.56C94.3247 42.2 96.0953 43.1387 97.546 44.376C99.0393 45.6133 100.191 47.1493 101.002 48.984C101.855 50.776 102.282 52.8667 102.282 55.256C102.282 57.0907 102.005 58.904 101.45 60.696C100.895 62.488 99.9993 64.1093 98.762 65.56C97.5247 67.0107 95.9033 68.184 93.898 69.08C91.8927 69.9333 89.3967 70.36 86.41 70.36H79.626V87H72.778V40.536H85.514ZM86.282 63.832C88.0313 63.832 89.482 63.5547 90.634 63C91.8287 62.4453 92.746 61.7627 93.386 60.952C94.0687 60.0987 94.538 59.2027 94.794 58.264C95.0927 57.2827 95.242 56.344 95.242 55.448C95.242 54.5947 95.0927 53.6987 94.794 52.76C94.538 51.8213 94.0687 50.9253 93.386 50.072C92.746 49.2187 91.8713 48.5147 90.762 47.96C89.6527 47.4053 88.2873 47.128 86.666 47.128H79.626V63.832H86.282ZM94.154 67.8L106.186 87H98.25L86.026 67.992L94.154 67.8Z" fill="white"/>
</svg>
